# xmcd
#
# Track frame offsets: 
#        150
#        16664
#        29427
#        45940
#        62808
#        80987
#        95611
#        115111
#        125927
#        140959
#        165467
#        182355
#        196505
#
# Disc length: 2874 seconds
#
# Revision: 2
# Processed by: cddbd v1.5.2PL0 Copyright (c) Steve Scherf et al.
# Submitted via: ExactAudioCopy v0.95b4
#
DISCID=ab0b380d
DTITLE=Indigo Girls - Despite Our Differences
DYEAR=2006
DGENRE=Folk
TTITLE0=Pendulum Swinger
TTITLE1=Little Perennials
TTITLE2=I Believe in Love
TTITLE3=Three County Highway
TTITLE4=Run
TTITLE5=Rock and Roll Heaven's Gate
TTITLE6=Lay My Head Down
TTITLE7=Money Made You Mean
TTITLE8=Fly Away
TTITLE9=Dirt and Dead Ends
TTITLE10=All the Way
TTITLE11=They Won't Have Me
TTITLE12=Last Tears
EXTD=YEAR: 2006
EXTT0=
EXTT1=
EXTT2=
EXTT3=
EXTT4=
EXTT5=
EXTT6=
EXTT7=
EXTT8=
EXTT9=
EXTT10=
EXTT11=
EXTT12=
PLAYORDER=
